<svg width="163" height="151" viewBox="0 0 163 151" fill="none" xmlns="http://www.w3.org/2000/svg">
<g clip-path="url(#clip0_1_5)">
<path d="M126 1C138.667 1 151.333 1 164 1C164 2.70596 164 4.35351 163.717 6.16186C162.948 7.12169 162.292 7.86345 162.003 8.728C148.317 49.6259 134.628 90.5229 121.04 131.453C118.793 138.224 117.002 145.147 115 152C104.312 152 93.6249 152 82.7961 151.698C79.482 142.72 75.984 134.145 73.2627 125.329C71.7287 120.36 68.5632 115.582 70.5815 109.796C74.8491 97.5605 78.8268 85.2246 83.0012 72.9565C83.465 71.5936 84.4328 70.4022 85.5696 68.434C89.2918 78.1925 92.6698 87.0484 96.3976 96.8212C106.165 65.928 115.601 36.1213 124.988 6.29957C125.525 4.59575 125.672 2.76935 126 1Z" fill="#1a1a1a"/>
<path d="M1 119C1 115.639 1 112.277 1.28122 108.799C2.04856 107.884 2.70246 107.143 2.99535 106.279C6.69332 95.3761 10.3031 84.4431 14.0424 73.5545C14.5306 72.1329 15.6159 70.9165 16.9063 68.8238C20.7224 78.7783 24.0785 87.5328 27.6249 96.784C35.5319 71.6664 43.3159 47.1203 50.9638 22.5317C53.1767 15.417 54.9988 8.18061 57 1C69.3542 1 81.7085 1 94.5311 1.40904C94.7986 2.93519 94.7349 4.0985 94.3763 5.16247C88.9403 21.2935 83.4332 37.4006 78.0073 53.535C69.3283 79.3435 60.6355 105.148 52.0868 130.999C49.8001 137.914 48.0152 144.995 46 152C35.3124 152 24.6249 152 13.8104 151.706C10.1317 141.21 6.60609 130.998 2.97457 120.824C2.70766 120.077 1.67608 119.602 1 119Z" fill="#1a1a1a"/>
</g>
<defs>
<clipPath id="clip0_1_5">
<rect width="163" height="151" fill="#1a1a1a"/>
</clipPath>
</defs>
</svg>
